<svg xmlns="http://www.w3.org/2000/svg" viewBox="0 0 64 64" width="64" height="64">
  <defs>
    <radialGradient id="m" cx="42%" cy="34%" r="72%">
      <stop offset="0%" stop-color="#26211a"/><stop offset="70%" stop-color="#171310"/><stop offset="100%" stop-color="#0c0a08"/>
    </radialGradient>
    <linearGradient id="g" x1="0" y1="0" x2="1" y2="1">
      <stop offset="0%" stop-color="#f6cd6b"/><stop offset="48%" stop-color="#d9a441"/><stop offset="100%" stop-color="#a9761f"/>
    </linearGradient>
    <clipPath id="c"><circle cx="32" cy="32" r="28"/></clipPath>
  </defs>
  <circle cx="32" cy="32" r="30" fill="url(#g)"/>
  <circle cx="32" cy="32" r="28.2" fill="url(#m)"/>
  <g clip-path="url(#c)" stroke="url(#g)" fill="none" stroke-linecap="round" opacity="0.5">
    <path d="M6 36 C16 40 24 34 32 38 C42 43 48 37 58 41" stroke-width="1.3" opacity="0.6"/>
    <path d="M8 26 C18 22 22 30 30 27 C38 24 44 30 56 24" stroke-width="1.1" opacity="0.5"/>
    <path d="M12 47 C20 44 27 49 34 46 C43 42 50 48 55 45" stroke-width="0.9" opacity="0.4"/>
  </g>
  <g stroke-linecap="round" stroke-linejoin="round" fill="none">
    <path d="M15 22 L23 44 L32 30 L41 44 L49 22" stroke="url(#g)" stroke-width="5"/>
    <path d="M20 17.5 L44 17.5 M32 17.5 L32 30" stroke="#f6cd6b" stroke-width="5"/>
  </g>
</svg>
